<?xml version="1.0" encoding="utf-8"?>
<!-- Generator: Adobe Illustrator 20.0.0, SVG Export Plug-In . SVG Version: 6.00 Build 0)  -->
<svg version="1.1"
	 id="svg2" inkscape:output_extension="org.inkscape.output.svg.inkscape" inkscape:version="0.46" sodipodi:docname="Snellen chart.svg" sodipodi:version="0.32" xmlns:cc="http://creativecommons.org/ns#" xmlns:dc="http://purl.org/dc/elements/1.1/" xmlns:inkscape="http://www.inkscape.org/namespaces/inkscape" xmlns:rdf="http://www.w3.org/1999/02/22-rdf-syntax-ns#" xmlns:sodipodi="http://sodipodi.sourceforge.net/DTD/sodipodi-0.dtd" xmlns:svg="http://www.w3.org/2000/svg"
	 xmlns="http://www.w3.org/2000/svg" xmlns:xlink="http://www.w3.org/1999/xlink" x="0px" y="0px" viewBox="0 0 1487.7 643.4"
	 style="enable-background:new 0 0 1487.7 643.4;" xml:space="preserve">
<style type="text/css">
	.st0{stroke:#000000;stroke-width:2.7156;}
	.st1{stroke:#000000;stroke-width:1.3578;}
	.st2{stroke:#000000;stroke-width:2.5935;}
	.st3{stroke:#000000;stroke-width:5.3019;}
	.st4{stroke:#000000;stroke-width:0.7047;}
	.st5{stroke:#000000;stroke-width:0.6945;}
	.st6{stroke:#000000;stroke-width:0.7046;}
	.st7{stroke:#000000;stroke-width:0.5513;}
	.st8{stroke:#000000;stroke-width:0.5512;}
	.st9{stroke:#000000;stroke-width:0.4147;}
	.st10{stroke:#000000;stroke-width:0.4146;}
	.st11{stroke:#000000;stroke-width:1.1172;}
	.st12{stroke:#000000;stroke-width:0.3525;}
	.st13{stroke:#000000;stroke-width:0.3474;}
	.st14{stroke:#000000;stroke-width:1.9413;}
	.st15{stroke:#000000;stroke-width:0.9496;}
	.st16{stroke:#000000;stroke-width:0.3524;}
	.st17{stroke:#000000;stroke-width:0.2777;}
	.st18{stroke:#000000;stroke-width:0.2778;}
	.st19{stroke:#000000;stroke-width:1.533;}
	.st20{stroke:#000000;stroke-width:0.7499;}
	.st21{stroke:#000000;stroke-width:0.2026;}
	.st22{stroke:#000000;stroke-width:1.1232;}
	.st23{stroke:#000000;stroke-width:0.5494;}
	.st24{stroke:#000000;stroke-width:0.1749;}
	.st25{stroke:#000000;stroke-width:0.1996;}
	.st26{stroke:#000000;stroke-width:0.9721;}
	.st27{stroke:#000000;stroke-width:0.4755;}
	.st28{stroke:#000000;stroke-width:0.1723;}
	.st29{stroke:#000000;stroke-width:0.1329;}
	.st30{stroke:#000000;stroke-width:0.7433;}
	.st31{stroke:#000000;stroke-width:0.3636;}
	.st32{stroke:#000000;stroke-width:0.131;}
	.st33{fill:#1FB53B;stroke:#FFFFFF;stroke-width:0.2699;}
	.st34{fill:#CC3333;stroke:#FFFFFF;stroke-width:0.2602;}
	.st35{stroke:#000000;stroke-width:0.1009;}
	.st36{stroke:#000000;stroke-width:7.589681e-02;}
	.st37{stroke:#000000;stroke-width:5.090645e-02;}
	.st38{stroke:#000000;stroke-width:3.724348e-02;}
	.st39{stroke:#000000;stroke-width:3.218162e-02;}
	.st40{stroke:#000000;stroke-width:2.458199e-02;}
</style>
<defs>
	
	
		<inkscape:perspective  id="perspective10" inkscape:persp3d-origin="-325.28188 : 1587.6484 : 1" inkscape:vp_x="-459.52517 : 1102.0947 : 1" inkscape:vp_y="-1000.6093 : -166.6668 : 0" inkscape:vp_z="-464.18493 : 1770.7194 : 1" sodipodi:type="inkscape:persp3d">
		</inkscape:perspective>
	
		<inkscape:perspective  id="perspective3233" inkscape:persp3d-origin="372.04724 : 350.78739 : 1" inkscape:vp_x="0 : 526.18109 : 1" inkscape:vp_y="0 : 1000 : 0" inkscape:vp_z="744.09448 : 526.18109 : 1" sodipodi:type="inkscape:persp3d">
		</inkscape:perspective>
	
		<inkscape:perspective  id="perspective2582" inkscape:persp3d-origin="372.04724 : 350.78739 : 1" inkscape:vp_x="0 : 526.18109 : 1" inkscape:vp_y="0 : 1000 : 0" inkscape:vp_z="744.09448 : 526.18109 : 1" sodipodi:type="inkscape:persp3d">
		</inkscape:perspective>
	
		<inkscape:perspective  id="perspective2651" inkscape:persp3d-origin="372.04724 : 350.78739 : 1" inkscape:vp_x="0 : 526.18109 : 1" inkscape:vp_y="0 : 1000 : 0" inkscape:vp_z="744.09448 : 526.18109 : 1" sodipodi:type="inkscape:persp3d">
		</inkscape:perspective>
	
		<inkscape:perspective  id="perspective2692" inkscape:persp3d-origin="372.04724 : 350.78739 : 1" inkscape:vp_x="0 : 526.18109 : 1" inkscape:vp_y="0 : 1000 : 0" inkscape:vp_z="744.09448 : 526.18109 : 1" sodipodi:type="inkscape:persp3d">
		</inkscape:perspective>
</defs>
<sodipodi:namedview  bordercolor="#666666" borderopacity="1.0" gridtolerance="10000" guidetolerance="10" id="base" inkscape:current-layer="layer1" inkscape:cx="482.40691" inkscape:cy="959.26474" inkscape:document-units="px" inkscape:guide-bbox="true" inkscape:pageopacity="0.0" inkscape:pageshadow="2" inkscape:window-height="712" inkscape:window-width="1024" inkscape:window-x="1020" inkscape:window-y="-4" inkscape:zoom="0.175" objecttolerance="10" pagecolor="#ffffff" showborder="true" showgrid="false" showguides="true">
	</sodipodi:namedview>
<g id="layer1" transform="translate(184.17952,416.43503)" inkscape:groupmode="layer" inkscape:label="Layer 1">
	<g id="g2814">
		<path id="path3243" sodipodi:nodetypes="ccccccccccccccccccccc" class="st0" d="M-101.5-13.4v54.8h-54.3v-266.2h106.7v52.9h-52.3
			v106.7h53.3v-54.3H5.2v54.3h51.9V-172H4.3v-52.9h107.2V41.4H57.6v-54.8H-101.5z"/>
		<path id="path3261" sodipodi:nodetypes="ccccccccccccccccccc" class="st1" d="M283.9,9.9h27.2v81h-26.9V63.5h-79.5v27.4h-27.2
			V-42.2h53.3v26.4h-26.1v53.3h26.6V10.4H258v27.2h25.9V9.9z"/>
		<path id="path3265" sodipodi:nodetypes="ccccccccccccsccscccc" class="st1" d="M257.9-235.6l0.1,28.2h25.9V-235h27.2v81h-26.9
			v-27.4h-79.5v27.4h-27.2v-85.4c4.1-17.1,11.5-34.9,38.9-35.2C241.3-274.9,253.9-257.3,257.9-235.6z M231.3-238
			c-0.2-6.5-3.4-10.8-14-10.7c-10,0-12.4,5-12.6,9.5v31.9h26.6V-238z"/>
		<path id="path3279" sodipodi:nodetypes="ccccccccccccccccc" class="st2" d="M383.7,130.2V38.3h37.1v18.3h-17.4v17.8h54.6V57.7
			h18.8v53.7h-18.8V93.4h-54.6v19h17.4v17.8H383.7z"/>
		<path id="path3285" class="st3" d="M383.4-87.6c0,25,20.3,45.2,45.2,45.2c25,0,45.1-20.3,45.1-45.2c0-25-20.2-45.1-45.1-45.1
			C403.6-132.8,383.4-112.6,383.4-87.6z M397.4-87.6c0-17.2,14-31.1,31.1-31.1c17.2,0,31.1,13.9,31.1,31.1
			c0,17.2-13.9,31.1-31.1,31.1C411.4-56.5,397.4-70.5,397.4-87.6z"/>
		<path id="path3303" class="st2" d="M383.7-221.4v-91.9h20.1l54.9,61.1v-42.4h-18.3v-18.8h36.4v91.9h-18.1l-54.9-63.2v43.5h18.8
			v19.7H383.7z"/>
		<path id="path3325" sodipodi:nodetypes="ccccccccccccsccscccc" class="st4" d="M578.8-44.1l0.1,14.7h13.5v-14.4h14.1v42h-14v-14.2
			h-41.3v14.2h-14.1V-46c2.1-8.9,5.9-18.1,20.2-18.3C570.2-64.5,576.7-55.3,578.8-44.1z M565-45.3c-0.1-3.4-1.7-5.6-7.3-5.6
			c-5.2,0-6.5,2.6-6.6,4.9v16.5H565V-45.3z"/>
		<path id="path3327" sodipodi:nodetypes="ccccccccccccccccccccc" class="st4" d="M551.2-138.3v14.2h-14.1v-69.1h27.7v13.7h-13.6
			v27.7H565v-14.1h13.8v14.1h13.5v-27.7h-13.7v-13.7h27.8v69.1h-14v-14.2H551.2z"/>
		<path id="path3329" sodipodi:nodetypes="ccccccccccccccc" class="st5" d="M592.5,64.8v26.3h-39.4V77.6l-16,0l0,42.2H553v-13.2
			h39.7v13.2h13.8V51.1h-26.6v13.8H592.5z"/>
		<path id="path3335" sodipodi:nodetypes="czccccccccczcccc" class="st6" d="M537.1-292.2c-0.2-6.9,12.9-24.1,33.9-23.7
			c21.1,0.4,35.4,14.9,35.4,23.7l0,39h-14v-14.2h-41.3v14.2h-14.1L537.1-292.2z M592.3-286.1c0-6.3-8.1-16.9-21.8-16.8
			c-13.7,0.2-19.3,11.1-19.3,16.8l0,5.2h41.1L592.3-286.1z"/>
		<path id="path2405" sodipodi:nodetypes="ccccccccccccsccscccc" class="st7" d="M686.4,88.2l0,11.5h10.5V88.4h11v32.9H697v-11.1
			h-32.3v11.1h-11V86.6c1.7-6.9,4.7-14.2,15.8-14.3C679.7,72.2,684.8,79.4,686.4,88.2z M675.6,87.2c-0.1-2.7-1.4-4.4-5.7-4.4
			c-4.1,0-5,2-5.1,3.9v12.9h10.8V87.2z"/>
		<path id="path2407" sodipodi:nodetypes="ccccccccccccccccccccc" class="st7" d="M664.8,13.1v11.1h-11v-54h21.7v10.7h-10.6V2.6
			h10.8v-11h10.8v11h10.5v-21.7h-10.7v-10.7H708v54H697V13.1H664.8z"/>
		<path id="path2409" sodipodi:nodetypes="czccccccccczcccc" class="st8" d="M653.7-296c-0.1-5.4,10.1-18.8,26.5-18.5
			c16.5,0.3,27.7,11.7,27.7,18.5l0,30.5H697v-11.1h-32.3v11.1h-11L653.7-296z M697-291.2c0-5-6.4-13.3-17.1-13.1
			c-10.7,0.1-15.1,8.7-15.1,13.1l0,4.1h32.2L697-291.2z"/>
		<path id="path2411" sodipodi:nodetypes="ccccccccccccccccccc" class="st7" d="M696.9-208.3h11v32.9H697v-11.1h-32.3v11.1h-11v-54
			h21.7v10.7h-10.6v21.7h10.8v-11h10.8v11h10.5V-208.3z"/>
		<path id="path2413" sodipodi:nodetypes="ccccccccccccccccccccc" class="st9" d="M753.9,114.9v8.4h-8.3V82.7h16.3v8.1h-8V107h8.1
			v-8.3h8.1v8.3h7.9V90.7H770v-8.1h16.4v40.7h-8.2v-8.4H753.9z"/>
		<path id="path2415" sodipodi:nodetypes="czccccccccczcccc" class="st10" d="M745.6,21c-0.1-4.1,7.6-14.2,20-14
			c12.4,0.2,20.8,8.8,20.8,14l0,22.9h-8.2v-8.4h-24.3v8.4h-8.3L745.6,21z M778.1,24.6c0-3.7-4.8-10-12.8-9.9
			c-8.1,0.1-11.3,6.5-11.4,9.9l0,3.1h24.2L778.1,24.6z"/>
		<path id="path2417" sodipodi:nodetypes="ccccccccccccccccccc" class="st9" d="M778.1-60.2h8.3v24.7h-8.2v-8.4h-24.3v8.4h-8.3
			v-40.7h16.3v8.1h-8v16.3h8.1v-8.3h8.1v8.3h7.9V-60.2z"/>
		<path id="path2421" class="st11" d="M746.3-196.9v-39.6h8.7l23.6,26.3v-18.3h-7.9v-8.1h15.7v39.6h-7.8L755-224.1v18.8h8.1v8.5
			H746.3z"/>
		<path id="path2423" sodipodi:nodetypes="ccccccccccccsccscccc" class="st9" d="M770.1-304.4l0,8.6h7.9v-8.4h8.3v24.7h-8.2v-8.4
			h-24.3v8.4h-8.3v-26.1c1.3-5.2,3.5-10.6,11.9-10.7C765.1-316.4,768.9-311,770.1-304.4z M762-305.1c0-2-1-3.3-4.3-3.3
			c-3,0-3.8,1.5-3.9,2.9v9.7h8.1V-305.1z"/>
		<path id="path2425" sodipodi:nodetypes="ccccccccccccccccccc" class="st12" d="M910.2,82.4h7v21h-7v-7.1h-20.6v7.1h-7V68.9h13.8
			v6.9h-6.8v13.8h6.9v-7h6.9v7h6.7V82.4z"/>
		<path id="path2427" sodipodi:nodetypes="ccccccccccccccccccccc" class="st12" d="M889.6,34.7v7.1h-7V7.3h13.8v6.9h-6.8V28h6.9v-7
			h6.9v7h6.7V14.2h-6.9V7.3h13.9v34.6h-7v-7.1H889.6z"/>
		<path id="path2429" sodipodi:nodetypes="ccccccccccccccc" class="st13" d="M910.3-47v13.2h-19.7v-6.8l-8,0l0,21.1h8v-6.6h19.8v6.6
			h6.9v-34.4h-13.3v6.9H910.3z"/>
		<path id="path2431" class="st14" d="M883.1-94.9c0,9.1,7.4,16.6,16.6,16.6c9.1,0,16.5-7.4,16.5-16.6c0-9.1-7.4-16.5-16.5-16.5
			S883.1-104,883.1-94.9z M888.2-94.9c0-6.3,5.1-11.4,11.4-11.4c6.3,0,11.4,5.1,11.4,11.4c0,6.3-5.1,11.4-11.4,11.4
			C893.3-83.5,888.2-88.6,888.2-94.9z"/>
		<path id="path2433" sodipodi:nodetypes="ccccccccccccsccscccc" class="st12" d="M903.4-163.2l0,7.3h6.7v-7.2h7v21h-7v-7.1h-20.6
			v7.1h-7v-22.2c1.1-4.4,3-9.1,10.1-9.1C899.1-173.4,902.4-168.9,903.4-163.2z M896.5-163.9c0-1.7-0.9-2.8-3.6-2.8
			c-2.6,0-3.2,1.3-3.3,2.5v8.3h6.9V-163.9z"/>
		<path id="path2435" class="st15" d="M883.2-202.8v-33.7h7.4l20.1,22.4v-15.5H904v-6.9h13.3v33.7h-6.6L890.6-226v15.9h6.9v7.2
			H883.2z"/>
		<path id="path2437" sodipodi:nodetypes="czccccccccczcccc" class="st16" d="M882.6-288.3c-0.1-3.5,6.5-12,17-11.9
			c10.6,0.2,17.7,7.5,17.7,11.9l0,19.5h-7v-7.1h-20.6v7.1h-7L882.6-288.3z M910.2-285.2c0-3.2-4.1-8.5-10.9-8.4
			c-6.8,0.1-9.6,5.6-9.6,8.4l0,2.6h20.6L910.2-285.2z"/>
		<path id="path2439" sodipodi:nodetypes="czccccccccczcccc" class="st17" d="M981.3,66.8c-0.1-2.7,5.1-9.5,13.4-9.3
			c8.3,0.1,14,5.9,14,9.3l0,15.4h-5.5v-5.6h-16.3v5.6h-5.6L981.3,66.8z M1003,69.2c0-2.5-3.2-6.7-8.6-6.6c-5.4,0.1-7.6,4.4-7.6,6.6
			l0,2h16.2L1003,69.2z"/>
		<path id="path2441" sodipodi:nodetypes="ccccccccccccccccccccc" class="st18" d="M986.8,29.1v5.6h-5.6V7.4h10.9v5.4h-5.3v10.9h5.4
			v-5.6h5.5v5.6h5.3V12.9h-5.4V7.4h11v27.2h-5.5v-5.6H986.8z"/>
		<path id="path2443" sodipodi:nodetypes="ccccccccccccccccccc" class="st18" d="M1003-34.7h5.6v16.6h-5.5v-5.6h-16.3v5.6h-5.6
			v-27.2h10.9v5.4h-5.3V-29h5.4v-5.6h5.5v5.6h5.3V-34.7z"/>
		<path id="path2445" sodipodi:nodetypes="ccccccccccccsccscccc" class="st18" d="M997.7-81.1l0,5.8h5.3V-81h5.6v16.6h-5.5V-70
			h-16.3v5.6h-5.6v-17.5c0.8-3.5,2.3-7.1,8-7.2C994.3-89.1,996.9-85.5,997.7-81.1z M992.3-81.6c0-1.3-0.7-2.2-2.9-2.2
			c-2,0-2.5,1-2.6,1.9v6.5h5.4V-81.6z"/>
		<path id="path2447" class="st19" d="M981.5-123.6c0,7.2,5.9,13.1,13.1,13.1c7.2,0,13.1-5.9,13.1-13.1c0-7.2-5.8-13.1-13.1-13.1
			C987.4-136.6,981.5-130.8,981.5-123.6z M985.6-123.6c0-5,4-9,9-9s9,4,9,9c0,5-4,9-9,9S985.6-118.6,985.6-123.6z"/>
		<path id="path2449" sodipodi:nodetypes="ccccccccccccccccc" class="st20" d="M981.7-161v-26.6h10.7v5.3h-5v5.2h15.8v-4.8h5.4v15.5
			h-5.4v-5.2h-15.8v5.5h5v5.2H981.7z"/>
		<path id="path2451" sodipodi:nodetypes="ccccccccccccccccccccc" class="st18" d="M986.8-214.6v5.6h-5.6v-27.2h10.9v5.4h-5.3v10.9
			h5.4v-5.6h5.5v5.6h5.3v-10.9h-5.4v-5.4h11v27.2h-5.5v-5.6H986.8z"/>
		<path id="path2455" sodipodi:nodetypes="czccccccccczcccc" class="st21" d="M1103.5-129.1c0-2,3.7-6.9,9.8-6.8
			c6.1,0.1,10.2,4.3,10.2,6.8l0,11.2h-4v-4.1h-11.9v4.1h-4.1L1103.5-129.1z M1119.4-127.3c0-1.8-2.3-4.9-6.3-4.8
			c-3.9,0-5.5,3.2-5.5,4.8l0,1.5h11.8L1119.4-127.3z"/>
		<path id="path2457" sodipodi:nodetypes="ccccccccccccccccccccc" class="st21" d="M1107.6,33.5v4.1h-4.1V17.7h8v3.9h-3.9v8h4v-4.1
			h4v4.1h3.9v-8h-3.9v-3.9h8v19.9h-4v-4.1H1107.6z"/>
		<path id="path2459" sodipodi:nodetypes="ccccccccccccccccccc" class="st21" d="M1119.4-26h4.1v12.1h-4V-18h-11.9v4.1h-4.1v-19.9h8
			v3.9h-3.9v8h4v-4.1h4v4.1h3.9V-26z"/>
		<path id="path2461" sodipodi:nodetypes="ccccccccccccsccscccc" class="st21" d="M1115.5-181l0,4.2h3.9v-4.1h4.1v12.1h-4v-4.1
			h-11.9v4.1h-4.1v-12.7c0.6-2.6,1.7-5.2,5.8-5.3C1113-186.9,1114.9-184.3,1115.5-181z M1111.5-181.4c0-1-0.5-1.6-2.1-1.6
			c-1.5,0-1.9,0.7-1.9,1.4v4.8h4V-181.4z"/>
		<path id="path2463" class="st22" d="M1103.6-74.7c0,5.3,4.3,9.6,9.6,9.6c5.3,0,9.6-4.3,9.6-9.6c0-5.3-4.3-9.6-9.6-9.6
			C1107.9-84.3,1103.6-80,1103.6-74.7z M1106.5-74.7c0-3.6,3-6.6,6.6-6.6s6.6,2.9,6.6,6.6c0,3.6-2.9,6.6-6.6,6.6
			S1106.5-71.1,1106.5-74.7z"/>
		<path id="path2465" sodipodi:nodetypes="ccccccccccccccccc" class="st23" d="M1103.9-271v-19.5h7.8v3.9h-3.7v3.8h11.6v-3.5h4v11.4
			h-4v-3.8H1108v4h3.7v3.8H1103.9z"/>
		<path id="path2467" sodipodi:nodetypes="ccccccccccccccccccccc" class="st24" d="M1187.1-203.1v3.5h-3.5v-17.1h6.9v3.4h-3.4v6.9
			h3.4v-3.5h3.4v3.5h3.3v-6.9h-3.4v-3.4h6.9v17.1h-3.5v-3.5H1187.1z"/>
		<path id="path2471" sodipodi:nodetypes="ccccccccccccccc" class="st25" d="M1119.5,73.7v7.6h-11.3v-3.9l-4.6,0l0,12.1h4.6v-3.8
			h11.4v3.8h4V69.7h-7.6v4H1119.5z"/>
		<path id="path2473" sodipodi:nodetypes="czccccccccczcccc" class="st24" d="M1183.6,0.5c0-1.7,3.2-6,8.4-5.9
			c5.2,0.1,8.8,3.7,8.8,5.9l0,9.7h-3.5V6.7h-10.2v3.5h-3.5L1183.6,0.5z M1197.3,2.1c0-1.6-2-4.2-5.4-4.2c-3.4,0-4.8,2.8-4.8,4.2
			l0,1.3h10.2L1197.3,2.1z"/>
		<path id="path2477" sodipodi:nodetypes="ccccccccccccccccccc" class="st24" d="M1197.3,44.4h3.5v10.4h-3.5v-3.5h-10.2v3.5h-3.5
			V37.7h6.9v3.4h-3.4V48h3.4v-3.5h3.4V48h3.3V44.4z"/>
		<path id="path2479" sodipodi:nodetypes="ccccccccccccsccscccc" class="st24" d="M1194-42.9l0,3.6h3.3v-3.6h3.5v10.4h-3.5v-3.5
			h-10.2v3.5h-3.5v-11c0.5-2.2,1.5-4.5,5-4.5C1191.9-48,1193.5-45.7,1194-42.9z M1190.6-43.2c0-0.8-0.4-1.4-1.8-1.4
			c-1.3,0-1.6,0.6-1.6,1.2v4.1h3.4V-43.2z"/>
		<path id="path2481" class="st26" d="M1183.6-249.2c0,4.6,3.7,8.3,8.3,8.3c4.6,0,8.3-3.7,8.3-8.3s-3.7-8.3-8.3-8.3
			C1187.3-257.5,1183.6-253.8,1183.6-249.2z M1186.2-249.2c0-3.1,2.6-5.7,5.7-5.7c3.1,0,5.7,2.6,5.7,5.7s-2.6,5.7-5.7,5.7
			C1188.7-243.5,1186.2-246.1,1186.2-249.2z"/>
		<path id="path2483" sodipodi:nodetypes="ccccccccccccccccc" class="st27" d="M1183.8-113.7v-16.9h6.8v3.4h-3.2v3.3h10v-3.1h3.4
			v9.9h-3.4v-3.3h-10v3.5h3.2v3.3H1183.8z"/>
		<path id="path2487" sodipodi:nodetypes="ccccccccccccccc" class="st28" d="M1197.4-87.1v6.5h-9.8v-3.4l-4,0l0,10.5h3.9v-3.3h9.8
			v3.3h3.4v-17.1h-6.6v3.4H1197.4z"/>
		<path id="path2489" sodipodi:nodetypes="ccccccccccccccccccccc" class="st29" d="M1267.3,7.4v2.7h-2.7V-3h5.2v2.6h-2.6v5.2h2.6
			V2.2h2.6v2.7h2.5v-5.2h-2.6V-3h5.2v13h-2.6V7.4H1267.3z"/>
		<path id="path2491" sodipodi:nodetypes="czccccccccczcccc" class="st29" d="M1264.6-247.4c0-1.3,2.4-4.5,6.4-4.5
			c4,0.1,6.7,2.8,6.7,4.5l0,7.4h-2.6v-2.7h-7.8v2.7h-2.7L1264.6-247.4z M1275.1-246.2c0-1.2-1.5-3.2-4.1-3.2c-2.6,0-3.6,2.1-3.6,3.2
			l0,1h7.8L1275.1-246.2z"/>
		<path id="path2493" sodipodi:nodetypes="ccccccccccccccccccc" class="st29" d="M1275.1-178.7h2.7v7.9h-2.6v-2.7h-7.8v2.7h-2.7v-13
			h5.2v2.6h-2.6v5.2h2.6v-2.7h2.6v2.7h2.5V-178.7z"/>
		<path id="path2495" sodipodi:nodetypes="ccccccccccccsccscccc" class="st29" d="M1272.5,38.2l0,2.8h2.5v-2.7h2.7v7.9h-2.6v-2.7
			h-7.8v2.7h-2.7v-8.4c0.4-1.7,1.1-3.4,3.8-3.4C1270.9,34.3,1272.1,36,1272.5,38.2z M1269.9,37.9c0-0.6-0.3-1.1-1.4-1.1
			c-1,0-1.2,0.5-1.2,0.9v3.1h2.6V37.9z"/>
		<path id="path2497" class="st30" d="M1264.8-67.9c0,3.5,2.8,6.3,6.3,6.3s6.3-2.8,6.3-6.3s-2.8-6.3-6.3-6.3
			S1264.8-71.4,1264.8-67.9z M1266.8-67.9c0-2.4,2-4.4,4.4-4.4s4.4,1.9,4.4,4.4c0,2.4-1.9,4.4-4.4,4.4S1266.8-65.5,1266.8-67.9z"/>
		<path id="path2499" sodipodi:nodetypes="ccccccccccccccccc" class="st31" d="M1264.7-205.7v-12.9h5.2v2.6h-2.4v2.5h7.7v-2.3h2.6
			v7.5h-2.6v-2.5h-7.7v2.7h2.4v2.5H1264.7z"/>
		<path id="path2505" class="st31" d="M1264.7-25.4v-12.9h2.8l7.7,8.6v-5.9h-2.6v-2.6h5.1v12.9h-2.5l-7.7-8.9v6.1h2.6v2.8H1264.7z"
			/>
		<path id="path2507" sodipodi:nodetypes="ccccccccccccccc" class="st32" d="M1275.1-107.4v5h-7.4v-2.6l-3,0l0,8h3v-2.5h7.5v2.5h2.6
			v-13h-5v2.6H1275.1z"/>
		<path id="rect2511" class="st33" d="M808.4,139.2v-470.4h34.7v470.4H808.4z"/>
		<path id="rect2513" class="st34" d="M1023.6,98.7v-376.9h40.2V98.7H1023.6z"/>
		<path id="path2706" sodipodi:nodetypes="ccsssccsssc" class="st35" d="M674.7-113.8l-0.1-12.5c-12.1,2.7-21.2,13.4-21.2,26.2
			c0,14.8,12.2,26.8,27.3,26.8c15.1,0,27.3-12,27.3-26.8c0-12.6-8.8-23.2-20.7-26.1l-0.2,12.5c5.2,2.4,8.8,7.5,8.8,13.5
			c0,8.2-6.8,14.9-15.2,14.9s-15.2-6.7-15.2-14.9C665.6-106.3,669.4-111.5,674.7-113.8z"/>
		<path id="path2804" sodipodi:nodetypes="ccsssccsssc" class="st36" d="M761.3-144.9l-0.1-9.4c-9.1,2.1-15.9,10.1-15.9,19.7
			c0,11.1,9.2,20.2,20.6,20.2s20.6-9,20.6-20.2c0-9.5-6.6-17.4-15.6-19.6l-0.2,9.4c3.9,1.8,6.6,5.7,6.6,10.2
			c0,6.2-5.1,11.2-11.4,11.2c-6.3,0-11.4-5-11.4-11.2C754.4-139.3,757.3-143.2,761.3-144.9z"/>
		<path id="path2806" sodipodi:nodetypes="ccsssccsssc" class="st37" d="M991.6-280.6l-0.1-6.3c-6.1,1.4-10.7,6.8-10.7,13.2
			c0,7.5,6.2,13.5,13.8,13.5c7.6,0,13.8-6.1,13.8-13.5c0-6.3-4.5-11.7-10.5-13.1l-0.1,6.3c2.6,1.2,4.4,3.8,4.4,6.8
			c0,4.1-3.4,7.5-7.7,7.5c-4.2,0-7.7-3.4-7.7-7.5C987-276.8,988.9-279.4,991.6-280.6z"/>
		<path id="path2808" sodipodi:nodetypes="ccsssccsssc" class="st38" d="M1111-235.4l-0.1-4.6c-4.5,1-7.8,5-7.8,9.7
			c0,5.5,4.5,9.9,10.1,9.9c5.6,0,10.1-4.4,10.1-9.9c0-4.6-3.3-8.5-7.6-9.6l-0.1,4.6c1.9,0.9,3.2,2.8,3.2,5c0,3-2.5,5.5-5.6,5.5
			c-3.1,0-5.6-2.5-5.6-5.5C1107.6-232.7,1109-234.6,1111-235.4z"/>
		<path id="path2810" sodipodi:nodetypes="ccsssccsssc" class="st39" d="M1190.1-168.6l0-4c-3.9,0.9-6.8,4.3-6.8,8.3
			c0,4.7,3.9,8.6,8.7,8.6s8.7-3.8,8.7-8.6c0-4-2.8-7.4-6.6-8.3l-0.1,4c1.7,0.8,2.8,2.4,2.8,4.3c0,2.6-2.2,4.8-4.8,4.8
			s-4.8-2.1-4.8-4.8C1187.1-166.2,1188.3-167.9,1190.1-168.6z"/>
		<path id="path2812" sodipodi:nodetypes="ccsssccsssc" class="st40" d="M1269.8-142.6l0-3c-3,0.7-5.2,3.3-5.2,6.4
			c0,3.6,3,6.5,6.7,6.5c3.7,0,6.7-2.9,6.7-6.5c0-3.1-2.2-5.6-5-6.3l-0.1,3.1c1.3,0.6,2.1,1.8,2.1,3.3c0,2-1.7,3.6-3.7,3.6
			s-3.7-1.6-3.7-3.6C1267.6-140.7,1268.5-142,1269.8-142.6z"/>
	</g>
</g>
</svg>
